<svg width="100" height="100" viewBox="0 0 100 100" fill="none" xmlns="http://www.w3.org/2000/svg">
<path d="M100 99.96L11 99.96L11 17.96L90 17.96C95.5228 17.96 100 22.4371 100 27.96L100 99.96Z" fill="#AEDEFF"/>
<rect width="21" height="91" rx="8" fill="#004ED6"/>
<path d="M74 83.0364C74 87.4547 70.4183 91.0364 66 91.0364L54 91.0364L54 34.0364L74 34.0364L74 83.0364Z" fill="#004ED6"/>
<path d="M74 26.0364C74 27.6932 72.6569 29.0364 71 29.0364L56 29.0364C54.3431 29.0364 53 27.6932 53 26.0364L53 3.03638C53 1.37952 54.3431 0.0363764 56 0.0363763L57.5 0.0363762C66.6127 0.0363755 74 7.42368 74 16.5364L74 26.0364Z" fill="#004ED6"/>
<rect x="21" y="54.96" width="21" height="35" transform="rotate(-90 21 54.96)" fill="#004ED6"/>
</svg>
